<svg xmlns="http://www.w3.org/2000/svg" viewBox="0 0 64 64">
  <defs>
    <linearGradient id="g" x1="0" y1="0" x2="1" y2="1">
      <stop offset="0%" stop-color="#DEA584"/>
      <stop offset="100%" stop-color="#C67650"/>
    </linearGradient>
  </defs>
  <!-- Gear body -->
  <path fill="url(#g)" d="M32 4l4.5 7.2a24 24 0 0 1 5.8 2.4L50 10.8l3.2 3.2-2.8 7.7a24 24 0 0 1 2.4 5.8L60 32l-7.2 4.5a24 24 0 0 1-2.4 5.8l2.8 7.7-3.2 3.2-7.7-2.8a24 24 0 0 1-5.8 2.4L32 60l-4.5-7.2a24 24 0 0 1-5.8-2.4L14 53.2l-3.2-3.2 2.8-7.7a24 24 0 0 1-2.4-5.8L4 32l7.2-4.5a24 24 0 0 1 2.4-5.8L10.8 14l3.2-3.2 7.7 2.8a24 24 0 0 1 5.8-2.4L32 4z"/>
  <!-- Center hole -->
  <circle cx="32" cy="32" r="10" fill="#1a1a2e"/>
  <!-- R letter -->
  <text x="32" y="37" text-anchor="middle" font-family="Arial,sans-serif" font-weight="bold" font-size="14" fill="#DEA584">R</text>
</svg>
